{
  "source": "C:\\Users\\Peter\\Desktop\\stuff\\MIUN\\quantitative_research\\video_compression\\videos\\HEVC_CLASS_B\\Cactus_1920x1080_50.y4m",
  "output": "C:\\Users\\Peter\\Desktop\\stuff\\MIUN\\quantitative_research\\video_compression\\compressed_videos\\HEVC_CLASS_B\\h264\\2.5\\Cactus_1920x1080_50_h264.mp4",
  "codec": "h264",
  "ok": "Input #0, yuv4mpegpipe, from 'C:\\Users\\Peter\\Desktop\\stuff\\MIUN\\quantitative_research\\video_compression\\videos\\HEVC_CLASS_B\\Cactus_1920x1080_50.y4m':\n  Duration: 00:00:10.00, start: 0.000000, bitrate: 1244162 kb/s\n  Stream #0:0: Video: rawvideo (I420 / 0x30323449), yuv420p(progressive), 1920x1080, 50 fps, 50 tbr, 50 tbn\n[out#0/mp4 @ 0000014804b1a640] Codec AVOption b:a (set bitrate (in bits/s)) has not been used for any stream. The most likely reason is either wrong type (e.g. a video option with no video streams) or that it is a private option of some decoder which was not actually used for any stream.\nStream mapping:\n  Stream #0:0 -> #0:0 (rawvideo (native) -> h264 (libx264))\nPress [q] to stop, [?] for help\n[libx264 @ 0000014804b1cac0] using cpu capabilities: MMX2 SSE2Fast SSSE3 SSE4.2 AVX FMA3 BMI2 AVX2\n[libx264 @ 0000014804b1cac0] profile High, level 5.0, 4:2:0, 8-bit\n[libx264 @ 0000014804b1cac0] 264 - core 165 r3222 b35605a - H.264/MPEG-4 AVC codec - Copyleft 2003-2025 - http://www.videolan.org/x264.html - options: cabac=1 ref=5 deblock=1:0:0 analyse=0x3:0x113 me=hex subme=8 psy=1 psy_rd=1.00:0.00 mixed_ref=1 me_range=16 chroma_me=1 trellis=2 8x8dct=1 cqm=0 deadzone=21,11 fast_pskip=1 chroma_qp_offset=-2 threads=18 lookahead_threads=3 sliced_threads=0 nr=0 decimate=1 interlaced=0 bluray_compat=0 constrained_intra=0 bframes=3 b_pyramid=2 b_adapt=1 b_bias=0 direct=3 weightb=1 open_gop=0 weightp=2 keyint=250 keyint_min=25 scenecut=40 intra_refresh=0 rc_lookahead=50 rc=cbr mbtree=1 bitrate=2500 ratetol=1.0 qcomp=0.60 qpmin=0 qpmax=69 qpstep=4 vbv_maxrate=2500 vbv_bufsize=2500 nal_hrd=none filler=0 ip_ratio=1.40 aq=1:1.00\nOutput #0, mp4, to 'C:\\Users\\Peter\\Desktop\\stuff\\MIUN\\quantitative_research\\video_compression\\compressed_videos\\HEVC_CLASS_B\\h264\\2.5\\Cactus_1920x1080_50_h264.mp4':\n  Metadata:\n    encoder         : Lavf62.3.100\n  Stream #0:0: Video: h264 (avc1 / 0x31637661), yuv420p(tv, progressive), 1920x1080, q=2-31, 2500 kb/s, 50 fps, 12800 tbn\n    Metadata:\n      encoder         : Lavc62.11.100 libx264\n    Side data:\n      cpb: bitrate max/min/avg: 2500000/0/2500000 buffer size: 2500000 vbv_delay: N/A\nframe=    0 fps=0.0 q=0.0 size=       0KiB time=N/A bitrate=N/A speed=N/A elapsed=0:00:00.51    \nframe=    0 fps=0.0 q=0.0 size=       0KiB time=N/A bitrate=N/A speed=N/A elapsed=0:00:01.05    \nframe=   36 fps= 22 q=41.0 size=       0KiB time=00:00:00.60 bitrate=   0.6kbits/s speed=0.369x elapsed=0:00:01.62    \nframe=   65 fps= 29 q=40.0 size=     256KiB time=00:00:01.24 bitrate=1691.6kbits/s speed=0.56x elapsed=0:00:02.21    \nframe=   90 fps= 32 q=40.0 size=     256KiB time=00:00:01.72 bitrate=1219.5kbits/s speed=0.614x elapsed=0:00:02.79    \nframe=  119 fps= 35 q=40.0 size=     512KiB time=00:00:02.28 bitrate=1839.8kbits/s speed=0.679x elapsed=0:00:03.35    \nframe=  148 fps= 38 q=40.0 size=     512KiB time=00:00:02.84 bitrate=1477.0kbits/s speed=0.725x elapsed=0:00:03.91    \nframe=  180 fps= 40 q=40.0 size=     768KiB time=00:00:03.48 bitrate=1808.0kbits/s speed=0.774x elapsed=0:00:04.49    \nframe=  210 fps= 41 q=40.0 size=    1024KiB time=00:00:04.08 bitrate=2056.1kbits/s speed=0.805x elapsed=0:00:05.06    \nframe=  233 fps= 41 q=39.0 size=    1024KiB time=00:00:04.62 bitrate=1815.8kbits/s speed=0.818x elapsed=0:00:05.65    \nframe=  253 fps= 41 q=40.0 size=    1280KiB time=00:00:05.02 bitrate=2088.9kbits/s speed=0.811x elapsed=0:00:06.18    \nframe=  286 fps= 43 q=40.0 size=    1536KiB time=00:00:05.68 bitrate=2215.4kbits/s speed=0.845x elapsed=0:00:06.71    \nframe=  314 fps= 43 q=40.0 size=    1536KiB time=00:00:06.24 bitrate=2016.6kbits/s speed=0.858x elapsed=0:00:07.27    \nframe=  338 fps= 43 q=40.0 size=    1792KiB time=00:00:06.72 bitrate=2184.6kbits/s speed=0.861x elapsed=0:00:07.80    \nframe=  368 fps= 44 q=40.0 size=    1792KiB time=00:00:07.22 bitrate=2033.3kbits/s speed=0.864x elapsed=0:00:08.36    \nframe=  398 fps= 45 q=40.0 size=    2048KiB time=00:00:07.90 bitrate=2123.7kbits/s speed=0.886x elapsed=0:00:08.91    \nframe=  430 fps= 45 q=40.0 size=    2304KiB time=00:00:08.50 bitrate=2220.6kbits/s speed=0.894x elapsed=0:00:09.50    \nframe=  456 fps= 45 q=39.0 size=    2304KiB time=00:00:09.06 bitrate=2083.3kbits/s speed=0.898x elapsed=0:00:10.08    \nframe=  495 fps= 46 q=-1.0 size=    2560KiB time=00:00:09.86 bitrate=2127.0kbits/s speed=0.925x elapsed=0:00:10.65    \n[mp4 @ 0000014804b1b740] Starting second pass: moving the moov atom to the beginning of the file\n[out#0/mp4 @ 0000014804b1a640] video:2756KiB audio:0KiB subtitle:0KiB other streams:0KiB global headers:0KiB muxing overhead: 0.244004%\nframe=  500 fps= 46 q=-1.0 Lsize=    2763KiB time=00:00:09.96 bitrate=2272.6kbits/s speed=0.924x elapsed=0:00:10.78    \n[libx264 @ 0000014804b1cac0] frame I:2     Avg QP:36.00  size: 67310\n[libx264 @ 0000014804b1cac0] frame P:126   Avg QP:38.06  size: 12376\n[libx264 @ 0000014804b1cac0] frame B:372   Avg QP:42.03  size:  3031\n[libx264 @ 0000014804b1cac0] consecutive B-frames:  0.8%  0.0%  0.0% 99.2%\n[libx264 @ 0000014804b1cac0] mb I  I16..4: 28.0% 59.3% 12.8%\n[libx264 @ 0000014804b1cac0] mb P  I16..4:  1.8%  2.7%  0.1%  P16..4: 26.5%  4.9%  4.5%  0.0%  0.0%    skip:59.4%\n[libx264 @ 0000014804b1cac0] mb B  I16..4:  0.1%  0.2%  0.0%  B16..8: 24.1%  0.8%  0.1%  direct: 0.4%  skip:74.4%  L0:38.0% L1:61.0% BI: 0.9%\n[libx264 @ 0000014804b1cac0] 8x8 transform intra:58.6% inter:86.5%\n[libx264 @ 0000014804b1cac0] direct mvs  spatial:97.3% temporal:2.7%\n[libx264 @ 0000014804b1cac0] coded y,uvDC,uvAC intra: 34.0% 42.7% 10.8% inter: 2.9% 3.1% 0.1%\n[libx264 @ 0000014804b1cac0] i16 v,h,dc,p: 23% 25%  5% 47%\n[libx264 @ 0000014804b1cac0] i8 v,h,dc,ddl,ddr,vr,hd,vl,hu:  7%  4%  6% 14% 19% 15% 14% 12%  9%\n[libx264 @ 0000014804b1cac0] i4 v,h,dc,ddl,ddr,vr,hd,vl,hu: 11%  7%  7% 13% 16% 15% 11% 10% 12%\n[libx264 @ 0000014804b1cac0] i8c dc,h,v,p: 45% 23% 16% 16%\n[libx264 @ 0000014804b1cac0] Weighted P-Frames: Y:0.0% UV:0.0%\n[libx264 @ 0000014804b1cac0] ref P L0: 59.9% 12.8% 16.4%  4.7%  6.1%\n[libx264 @ 0000014804b1cac0] ref B L0: 88.5%  7.9%  2.6%  1.0%\n[libx264 @ 0000014804b1cac0] ref B L1: 97.1%  2.9%\n[libx264 @ 0000014804b1cac0] kb/s:2257.38\n",
  "seconds": 10.963801145553589,
  "probe_out": {}
}